# xmcd CD database file
#
# Track frame offsets:
#	150
#	22656
#	42725
#	56032
#	77298
#	95336
#	118369
#	139138
#	156675
#	180607
#	197422
#	218926
#	223980
#	241526
#	264055
#
# Disc length: 3787 seconds
#
# Revision: 0
# Processed by: cddbd v1.5.1PL0 Copyright (c) Steve Scherf et al.
# Submitted via: CDex 1.51
#
DISCID=d10ec90f
DTITLE=Dorothy Sikora and Rob Elinson - Smile
DYEAR=2000
DGENRE=Jazz
TTITLE0=Smile
TTITLE1=Change of Season
TTITLE2=Spring Samba
TTITLE3=Look to the Sun
TTITLE4=Song for Charlie
TTITLE5=When I Think of You
TTITLE6=Samba Yea - English
TTITLE7=When We Say Goodbye
TTITLE8=Opening
TTITLE9=Thank You
TTITLE10=Waiting to be Born
TTITLE11=Coming Home
TTITLE12=When We Say Goodbye - Instrumental
TTITLE13=Samba Yea - Spanish
TTITLE14=Change of Season - Instrumental
EXTD=YEAR: 2000
EXTT0=
EXTT1=
EXTT2=
EXTT3=
EXTT4=
EXTT5=
EXTT6=
EXTT7=
EXTT8=
EXTT9=
EXTT10=
EXTT11=
EXTT12=
EXTT13=
EXTT14=
PLAYORDER=
